<?xml version="1.0" encoding="iso-8859-1"?>
<svg version="1.1" id="itcast" xmlns="http://www.w3.org/2000/svg" xmlns:xlink="http://www.w3.org/1999/xlink" viewBox="0 0 200 200" xml:space="preserve">
	<g id="g" fill="#41b883">
		<path id="all_path" d="M180.969,26.57c-14.429-12.08-41.015-11.908-41.015-11.908s-49.61,1.091-88.646,31.754
			C4.698,83.029,5.001,121.831,5.001,121.831s-0.267,12.066,6.615,19.846c8.214,9.286,23.815,14.554,23.815,14.554l-9.261-9.261
			c0,0,4.022,3.334,7.938,5.292c4.02,2.01,7.938,2.646,7.938,2.646l-7.938-9.261l7.938,3.969c0,0-1.555-1.45-3.969-3.969
			c-1.425-1.486-2.646-5.292-2.646-5.292s3.01,3.326,6.615,5.292c3.671,2.003,7.938,2.646,7.938,2.646s-2.366-1.65-5.292-3.969
			c-2.785-2.207-3.969-5.292-3.969-5.292s3.991,3.318,7.938,5.292c3.99,1.995,7.938,2.646,7.938,2.646s-4.631-2.352-7.938-5.292
			c-2.545-2.263-3.969-5.292-3.969-5.292s2.873,2.268,6.615,3.969c3.529,1.604,7.938,2.646,7.938,2.646s-3.903-1.935-6.615-3.969
			c-2.576-1.932-3.969-3.969-3.969-3.969s3.959,1.763,7.938,2.646c3.969,0.881,6.615,1.323,6.615,1.323s-4.166-1.219-11.908-5.292
			c-14.086-7.412-13.231-17.2-13.231-17.2s-3.094-23.293,35.723-51.6c33.246-24.244,64.83-23.815,64.83-23.815
			s13.643-0.547,20.856,5.292c9.487,8.183,3.44,35.522-15.25,52.923c-19.655,18.299-54.559,35.723-54.559,35.723v50.277
			l30.431-14.554v-17.2c0,0,35.85-21.388,57.519-45.298C200.5,82.833,203.736,42.288,180.969,26.57z M134.662,66.262
			c-22.086-24.776-88.185,30.355-68.799,51.6C84.654,138.455,155.633,89.785,134.662,66.262z"/>
	</g>
</svg>
